<svg xmlns="http://www.w3.org/2000/svg" fill="none" stroke-linecap="round" stroke-linejoin="round" class="icon icon-tabler icons-tabler-outline icon-tabler-flame" viewBox="0 0 35 24" width="32" height="32"><path fill="#ff9500" stroke="#945701" d="M6.5 9.5c2-2.96 0-7-1-8 0 3.038-1.773 4.741-3 6-1.226 1.26-2 3.24-2 5a6 6 0 1 0 12 0c0-1.532-1.056-3.94-2-5-1.786 3-2.791 3-4 2"/><path fill="#02920c" stroke="green" d="m23 8-3.397-3.44a2.104 2.104 0 0 1 0-2.95 2.04 2.04 0 0 1 2.912 0L23 2l.485-.39a2.04 2.04 0 0 1 2.912 0 2.104 2.104 0 0 1 0 2.95zM23 12l-3.397 3.44a2.104 2.104 0 0 0 0 2.95 2.04 2.04 0 0 0 2.912 0L23 18l.485.39a2.04 2.04 0 0 0 2.912 0 2.104 2.104 0 0 0 0-2.95zM25 10l3.44-3.397a2.104 2.104 0 0 1 2.95 0 2.04 2.04 0 0 1 0 2.912L31 10l.39.485a2.04 2.04 0 0 1 0 2.912 2.104 2.104 0 0 1-2.95 0zM21 10l-3.44-3.397a2.104 2.104 0 0 0-2.95 0 2.04 2.04 0 0 0 0 2.912L15 10l-.39.485a2.04 2.04 0 0 0 0 2.912 2.104 2.104 0 0 0 2.95 0z"/></svg>